<svg version="1.2" baseProfile="tiny-ps" xmlns="http://www.w3.org/2000/svg" viewBox="0 0 80 95" width="80" height="95">
	<title>codeigniter-svg</title>
	<style>
		tspan { white-space:pre }
		.shp0 { fill: #ee4323 } 
	</style>
	<path id="Layer" fill-rule="evenodd" class="shp0" d="M4.1 89.78C5.14 89.78 6.09 89.42 6.96 88.04L8.31 88.95C7.51 90.32 6.15 91.44 3.86 91.44C0.84 91.44 0 89.49 0 87.35C0 86.86 0.04 86.4 0.12 85.92C0.64 82.28 2.04 80.42 5.46 80.42C7.97 80.42 8.99 82.02 8.99 83.71C8.99 83.82 8.99 84.34 8.97 84.34L7.57 84.34L7.57 83.78C7.57 82.63 6.87 81.99 5.45 81.99C3.35 81.99 2.48 83.4 2.13 85.85C2.06 86.41 2 86.94 2 87.42C2 88.84 2.47 89.78 4.1 89.78ZM13.34 83.01C15.66 83.01 16.53 84.37 16.53 86.2C16.53 86.53 16.5 86.86 16.45 87.21C16.06 89.96 14.86 91.42 12.12 91.42C9.79 91.42 8.94 89.99 8.94 88.19C8.94 88.1 8.95 88.02 8.95 87.94C8.95 87.86 8.96 87.78 8.97 87.7C8.97 87.61 8.98 87.53 8.99 87.45C9 87.37 9.01 87.29 9.02 87.21C9.42 84.42 10.6 83.01 13.34 83.01ZM14.56 86.19C14.56 84.98 14.08 84.58 13.1 84.58C11.89 84.58 11.3 85.2 11 87.21C10.94 87.61 10.91 87.96 10.91 88.26C10.91 89.46 11.38 89.86 12.34 89.86C13.54 89.86 14.18 89.24 14.47 87.21C14.53 86.83 14.56 86.49 14.56 86.19ZM23.41 80.57L25.37 80.57L23.72 91.89L22.3 91.89L22.15 90.97C21.57 91.45 20.83 91.44 20.08 91.44C18.29 91.44 16.96 90.59 16.96 88.33C16.96 88.25 16.96 88.17 16.96 88.08C16.97 88 16.97 87.92 16.98 87.83C16.98 87.75 16.99 87.67 17 87.59C17.01 87.5 17.02 87.42 17.03 87.34C17.48 84.24 18.85 83.12 21.31 83.12C21.82 83.12 22.59 83.34 23.02 83.66C22.93 83.44 22.92 83.52 22.95 83.28L23.41 80.57ZM22 89.43L22.67 84.88C22.21 84.62 21.72 84.52 21.09 84.52C20.11 84.52 19.36 84.93 19.02 87.28C18.96 87.71 18.91 88.11 18.91 88.45C18.91 89.35 19.21 89.92 20.29 89.92C20.69 89.92 21.34 89.83 22 89.43ZM29.69 83.01C32.14 83.01 32.7 84.91 32.7 86.38C32.7 86.83 32.62 87.36 32.54 88.11L27.21 88.11C27.18 88.11 27.16 88.39 27.16 88.59C27.16 89.56 27.6 89.86 28.7 89.86C29.72 89.86 30.3 89.41 30.72 88.76L32.22 89.37C31.52 90.7 30.22 91.42 28.48 91.42C26.23 91.42 25.21 90.23 25.21 88.23C25.21 87.91 25.24 87.56 25.28 87.21C25.71 84.3 26.98 83.01 29.69 83.01L29.69 83.01ZM30.71 86.61C30.74 86.61 30.75 86.21 30.75 86.07C30.75 85.19 30.32 84.68 29.45 84.68C28.33 84.68 27.78 85.85 27.46 86.61L30.71 86.61ZM37.3 82.83L36.12 90.38L37.21 90.38L37.03 91.89L32.87 91.89L33.04 90.38L34.14 90.38L35.32 82.83L34.22 82.83L34.4 81.33L38.57 81.33L38.39 82.83L37.3 82.83ZM46.87 85.1L46.87 85.1L46.37 85.1C46.23 85.1 45.91 84.91 45.66 84.79C45.8 85.14 45.86 85.36 45.86 85.69C45.86 87.99 44.03 88.88 41.98 88.88C41.52 88.88 41.07 88.84 40.69 88.75L40.5 88.72C40.28 88.72 40.14 88.84 40.14 89.06C40.14 89.21 40.22 89.31 40.54 89.37L43.39 89.9C44.98 90.2 45.52 90.88 45.52 91.75C45.52 94.31 43.13 94.77 41.12 94.77C39.52 94.77 37.44 94.34 37.44 92.35C37.44 91.31 37.98 90.43 38.87 89.89C38.69 89.67 38.6 89.43 38.6 89.2C38.6 88.66 38.99 88.27 39.43 88.03C39.15 87.68 38.91 87.15 38.91 86.5C38.91 84.18 40.72 83.16 42.83 83.16C43.57 83.16 44.35 83.43 44.93 83.8L45.96 83.59L47.4 83.59L46.87 85.1ZM40.02 90.7C39.58 91.17 39.39 91.48 39.39 92.15C39.39 92.9 39.92 93.24 41.34 93.24C42.27 93.24 43.55 93.09 43.55 91.9C43.55 91.53 43.36 91.32 42.8 91.22L40.02 90.7ZM42.19 87.34C43.3 87.34 43.92 86.75 43.92 85.66C43.92 84.93 43.49 84.56 42.61 84.56C41.5 84.56 40.86 85.2 40.86 86.29C40.86 87.03 41.34 87.34 42.19 87.34ZM52.12 83.01C53.77 83.01 54.44 84.23 54.44 85.64C54.44 85.88 54.41 86.29 54.38 86.54L53.66 91.88L51.69 91.88L52.41 86.58C52.44 86.4 52.46 85.92 52.46 85.76C52.46 85.08 52.19 84.72 51.45 84.72C50.85 84.72 50.14 85.24 49.56 85.59L48.7 91.88L46.74 91.88L47.87 83.59L49.5 83.59L49.63 84.14C50.55 83.42 51.29 83.01 52.12 83.01ZM58.17 89.81C58.17 89.98 58.25 90.38 58.47 90.38L59.11 90.38L58.88 91.89L57.88 91.89C56.73 91.89 56.16 91.14 56.16 90.11C56.16 89.95 56.18 89.55 56.21 89.35L56.8 85.35C56.81 85.23 56.89 85.1 57.01 85.1L55.57 85.1L55.78 83.59L59.05 83.59L58.19 89.6L58.17 89.81ZM59.55 80.54L59.28 82.18C59.27 82.32 59.27 82.83 59.15 82.83L57.23 82.83C57.11 82.83 57.11 82.54 57.12 82.41L57.39 80.28C57.4 80.14 57.4 80.57 57.52 80.57L59.45 80.57C59.56 80.57 59.56 80.39 59.55 80.54ZM63.45 89.86C64.14 89.86 64.45 89.65 64.9 89.37L65.82 90.5C65.1 91.11 64.17 91.45 63.01 91.45C61.77 91.45 60.73 90.92 60.73 89.52C60.73 89.37 60.73 89.25 60.76 89.09L61.3 85.51C61.31 85.36 61.44 85.85 61.58 85.1L60.19 85.1L60.39 83.59L61.59 83.59L61.96 80.93L64.03 80.27L63.57 83.59L66.29 83.59L65.61 85.1L63.37 85.1L62.75 89.18L62.73 89.21C62.73 89.65 62.97 89.86 63.45 89.86ZM70.67 83.01C73.12 83.01 73.69 84.91 73.69 86.38C73.69 86.83 73.6 87.36 73.52 88.11L68.19 88.11C68.16 88.11 68.14 88.39 68.14 88.59C68.14 89.56 68.59 89.86 69.68 89.86C70.7 89.86 71.28 89.41 71.7 88.76L73.2 89.37C72.5 90.7 71.2 91.42 69.46 91.42C67.21 91.42 66.19 90.23 66.19 88.23C66.19 87.91 66.22 87.56 66.26 87.21C66.69 84.3 67.96 83.01 70.67 83.01L70.67 83.01ZM71.69 86.61C71.72 86.61 71.73 86.21 71.73 86.07C71.73 85.19 71.31 84.68 70.43 84.68C69.31 84.68 68.76 85.85 68.44 86.61L71.69 86.61ZM79.13 83.01C79.41 83.01 79.7 83.1 80 83.16L79.75 84.87C79.42 84.83 79.08 84.89 78.73 84.89C78.17 84.89 77.57 85.15 77.06 85.46L76.18 91.88L74.2 91.88L75.34 83.59L76.97 83.59L77.09 84.05C77.75 83.42 78.42 83.01 79.13 83.01L79.13 83.01ZM28.92 74.63C28.92 74.63 28.92 74.63 28.92 74.63C28.92 74.63 28.92 74.63 28.92 74.63L28.92 74.63ZM28.92 74.63C20.05 72.59 12.19 66.81 9.74 57.75C7.29 48.67 10.63 39.52 16.08 32.25C18.8 28.62 21.99 25.35 25.31 22.26C28.39 19.38 31.79 16.73 34.59 13.55C37.47 10.28 41.08 4.43 38.34 0C43.31 3.71 47.31 9.91 46.64 16.3C46.11 21.4 42.29 26.59 46.03 31.4C48.36 34.39 53.08 33.76 54.82 30.87L54.69 31.01C54.77 30.89 54.84 30.77 54.9 30.65C54.96 30.52 55.02 30.4 55.08 30.27C55.13 30.14 55.18 30.01 55.22 29.88C55.27 29.74 55.31 29.61 55.34 29.47L55.32 29.68C55.35 29.58 55.37 29.48 55.39 29.38C55.41 29.28 55.43 29.18 55.44 29.08C55.46 28.98 55.47 28.87 55.47 28.77C55.48 28.67 55.48 28.57 55.48 28.46C55.47 28.81 55.42 29.14 55.34 29.47C55.35 29.03 55.27 28.53 55.03 27.95L55.49 28.2C64.22 32.73 71.27 40.64 71.07 50.91C70.83 63.41 59.19 72.15 47.93 74.63C53.26 72.53 58.01 68.37 58.66 62.39C59.26 56.88 56.3 52.12 52.3 48.6C48.49 45.25 43.94 43.1 39.8 40.24C37.42 38.59 33.79 35.29 35.07 31.94C33.41 33.37 32.1 35.37 31.58 37.5C30.55 41.75 33.17 45.07 35.88 48C38.63 50.96 38.41 56.05 33.79 57.06C31.81 57.49 29.71 56.7 28.52 55.06C27.23 53.31 27.51 51.51 28.03 49.55C23.71 52.61 20.23 57.26 20.25 62.75C20.26 67.78 24.44 72.69 28.92 74.63Z" />
</svg>