<svg version="1.2" baseProfile="tiny-ps" xmlns="http://www.w3.org/2000/svg" viewBox="0 0 80 80" width="80" height="80">
	<title>4373205_laravel_logo_logos_icon-svg</title>
	<style>
		tspan { white-space:pre }
		.shp0 { fill: #f35045 } 
	</style>
	<g id="_x31_94-laravel">
		<g id="Layer">
			<g id="Layer">
				<path id="Layer" fill-rule="evenodd" class="shp0" d="M75.66 38.38C76.14 38.92 76.02 39.34 75.13 39.57C74.38 39.78 67.32 41.66 65.33 42.18C68.22 46.07 73.76 53.48 74.23 54.18C74.87 55.13 74.29 55.4 73.34 55.79C72.4 56.18 51.43 63.72 49.99 64.16C48.16 64.72 47.33 65 46.14 63.33C45.24 62.08 40.4 53.37 38.03 49.07C33.54 50.25 25.32 52.39 22.95 52.96C20.64 53.53 19.65 52.13 19.27 51.28C18.88 50.43 5.25 21.05 4.4 19.03C3.54 17.01 4.49 16.63 5.34 16.56C6.19 16.48 18.2 15.48 19.77 15.41C21.34 15.34 21.49 15.7 22.17 16.72L39.49 45.63L61.24 40.42C60.03 38.71 54.56 30.96 54.03 30.21C53.44 29.38 54.04 29 55.01 28.83C55.97 28.68 64.29 27.27 65.01 27.17C65.72 27.07 66.29 26.82 67.45 28.22C68.61 29.61 75.19 37.84 75.66 38.38ZM36.24 45.78C35.97 45.29 20.01 17.74 20.01 17.74C19.86 17.49 19.91 17.4 19.5 17.42C19.11 17.45 7.79 18.46 7.6 18.46C7.41 18.46 7.4 18.75 7.6 19.12C7.8 19.49 22.21 49.21 22.29 49.44C22.36 49.66 22.36 49.73 23.02 49.58C23.67 49.44 35.85 46.52 36.11 46.46C36.37 46.41 36.54 46.26 36.24 45.78ZM63.27 43C62.94 42.48 62.77 42.59 62.24 42.76L41.04 48.27C41.04 48.27 47.55 59.53 48.05 60.26C48.54 60.99 48.84 60.94 49.24 60.77C49.62 60.6 69.64 53.85 70.25 53.63C70.86 53.41 70.66 53.21 70.47 52.91C70.28 52.61 63.6 43.54 63.27 43ZM71.83 37.85C72.3 37.74 72.66 37.58 72.46 37.32C72.24 37.05 66.74 30.08 66.34 29.53C65.93 28.98 65.65 29.07 65.33 29.15C65 29.22 57.77 30.53 57.32 30.58C56.87 30.64 57.02 30.89 57.2 31.15L63.56 39.88C63.56 39.88 71.36 37.95 71.83 37.85Z" />
			</g>
		</g>
	</g>
	<g id="Layer_1">
	</g>
</svg>