<svg version="1.2" baseProfile="tiny-ps" xmlns="http://www.w3.org/2000/svg" viewBox="0 0 80 23" width="80" height="23">
	<title>nodejs-svg</title>
	<style>
		tspan { white-space:pre }
		.shp0 { fill: #83cd29 } 
		.shp1 { fill: #404137 } 
	</style>
	<g id="Layer">
		<path id="Layer" class="shp0" d="M73.6 8.19C73.41 8.19 73.22 8.23 73.05 8.32L67.76 11.43C67.41 11.63 67.2 12.01 67.2 12.41L67.2 18.61C67.2 19.01 67.41 19.39 67.76 19.59L69.14 20.4C69.81 20.73 70.06 20.73 70.36 20.73C71.36 20.73 71.93 20.12 71.93 19.05L71.93 12.93C71.93 12.85 71.85 12.79 71.77 12.79L71.11 12.79C71.02 12.79 70.95 12.85 70.95 12.93L70.95 19.05C70.95 19.52 70.46 20 69.68 19.6L68.24 18.74C68.19 18.72 68.15 18.67 68.15 18.61L68.15 12.41C68.15 12.35 68.19 12.29 68.24 12.26L73.52 9.17C73.53 9.16 73.55 9.16 73.56 9.15C73.57 9.15 73.59 9.15 73.6 9.15C73.62 9.15 73.63 9.15 73.64 9.15C73.66 9.16 73.67 9.16 73.68 9.17L78.96 12.26C79.01 12.29 79.05 12.35 79.05 12.41L79.05 18.61C79.05 18.67 79.02 18.73 78.98 18.75L73.68 21.85C73.64 21.88 73.57 21.88 73.52 21.85L72.16 21.03C72.15 21.02 72.14 21.02 72.13 21.01C72.12 21.01 72.11 21.01 72.1 21.01C72.08 21.01 72.07 21.01 72.06 21.01C72.05 21.02 72.04 21.02 72.03 21.03C71.65 21.24 71.58 21.27 71.23 21.39C71.14 21.42 71.01 21.47 71.27 21.62L73.05 22.68C73.09 22.71 73.14 22.73 73.18 22.75C73.22 22.76 73.27 22.78 73.32 22.79C73.36 22.8 73.41 22.81 73.46 22.82C73.51 22.83 73.55 22.83 73.6 22.83C73.65 22.83 73.7 22.83 73.75 22.82C73.79 22.81 73.84 22.81 73.89 22.79C73.93 22.78 73.98 22.76 74.02 22.75C74.07 22.73 74.11 22.71 74.15 22.68L79.45 19.59C79.79 19.39 80 19.01 80 18.61L80 12.41C80 12.01 79.79 11.63 79.45 11.43L74.15 8.32C73.99 8.23 73.8 8.19 73.6 8.19L73.6 8.19Z" />
		<path id="Layer" class="shp0" d="M75.02 12.61C73.51 12.61 72.61 13.27 72.61 14.35C72.61 15.52 73.5 15.85 74.95 15.99C76.68 16.17 76.82 16.42 76.82 16.77C76.82 17.37 76.35 17.62 75.23 17.62C73.83 17.62 73.52 17.27 73.42 16.56C73.41 16.49 73.35 16.43 73.28 16.43L72.59 16.43C72.51 16.43 72.43 16.5 72.43 16.59C72.43 17.49 72.92 18.56 75.23 18.56C76.91 18.56 77.87 17.89 77.87 16.72C77.87 15.56 77.09 15.25 75.47 15.03C73.83 14.81 73.67 14.71 73.67 14.32C73.67 13.99 73.8 13.56 75.02 13.56C76.1 13.56 76.51 13.8 76.67 14.54C76.69 14.61 76.75 14.67 76.82 14.67L77.5 14.67C77.54 14.67 77.59 14.64 77.62 14.61C77.64 14.58 77.66 14.54 77.66 14.5C77.55 13.22 76.71 12.61 75.02 12.61L75.02 12.61Z" />
	</g>
	<path id="Layer" fill-rule="evenodd" class="shp1" d="M42.47 0.06C42.53 0.06 42.59 0.07 42.64 0.09L45.98 1.99C46.03 2.02 46.08 2.06 46.12 2.1C46.17 2.14 46.2 2.19 46.23 2.24C46.26 2.3 46.29 2.35 46.3 2.41C46.32 2.47 46.33 2.53 46.33 2.59L46.33 18.98C46.33 19.04 46.32 19.1 46.31 19.16C46.29 19.22 46.27 19.27 46.24 19.33C46.21 19.38 46.17 19.43 46.13 19.47C46.09 19.51 46.04 19.55 45.99 19.58L40.38 22.86C40.33 22.89 40.28 22.92 40.22 22.93C40.16 22.95 40.1 22.96 40.04 22.96C39.98 22.96 39.93 22.95 39.87 22.93C39.81 22.92 39.76 22.89 39.71 22.86L34.1 19.58C33.89 19.45 33.76 19.23 33.76 18.98L33.76 12.41C33.76 12.16 33.89 11.93 34.1 11.8L39.71 8.52C39.76 8.49 39.81 8.46 39.87 8.45C39.93 8.43 39.98 8.43 40.04 8.43C40.1 8.43 40.16 8.43 40.22 8.45C40.28 8.46 40.33 8.49 40.38 8.52L41.79 9.34C41.8 9.35 41.82 9.36 41.84 9.36C41.86 9.37 41.88 9.37 41.9 9.37C41.92 9.37 41.95 9.37 41.97 9.36C41.99 9.36 42 9.35 42.02 9.34C42.1 9.3 42.13 9.22 42.13 9.13L42.13 0.4C42.13 0.37 42.14 0.34 42.15 0.31C42.15 0.29 42.17 0.26 42.18 0.23C42.19 0.21 42.21 0.18 42.23 0.16C42.25 0.14 42.28 0.12 42.3 0.11C42.32 0.1 42.33 0.09 42.34 0.09C42.36 0.08 42.37 0.08 42.38 0.07C42.4 0.07 42.41 0.07 42.43 0.06C42.44 0.06 42.46 0.06 42.47 0.06ZM6.45 8.27C6.56 8.27 6.66 8.29 6.76 8.35L12.37 11.63C12.42 11.66 12.46 11.7 12.51 11.74C12.55 11.78 12.58 11.83 12.61 11.88C12.64 11.94 12.67 11.99 12.68 12.05C12.7 12.11 12.7 12.17 12.7 12.23L12.69 21.05C12.69 21.08 12.69 21.11 12.68 21.14C12.67 21.17 12.66 21.19 12.65 21.22C12.63 21.25 12.61 21.27 12.59 21.29C12.57 21.31 12.55 21.33 12.52 21.35C12.5 21.36 12.47 21.37 12.44 21.38C12.41 21.39 12.38 21.39 12.35 21.39C12.32 21.39 12.3 21.39 12.27 21.38C12.24 21.37 12.21 21.36 12.19 21.35L8.86 19.41C8.65 19.28 8.51 19.06 8.51 18.81L8.51 14.69C8.51 14.63 8.5 14.57 8.49 14.51C8.47 14.46 8.45 14.4 8.42 14.35C8.39 14.3 8.35 14.25 8.31 14.21C8.27 14.16 8.22 14.13 8.17 14.1L6.76 13.27C6.65 13.2 6.53 13.17 6.42 13.17C6.39 13.17 6.36 13.18 6.33 13.18C6.3 13.18 6.27 13.19 6.24 13.2C6.22 13.2 6.19 13.21 6.16 13.23C6.13 13.24 6.11 13.25 6.08 13.27L4.66 14.1C4.45 14.22 4.33 14.45 4.33 14.69L4.33 18.81C4.33 19.06 4.19 19.28 3.98 19.41L0.65 21.35C0.63 21.36 0.6 21.37 0.57 21.38C0.54 21.39 0.51 21.39 0.48 21.39C0.45 21.39 0.42 21.39 0.39 21.38C0.37 21.37 0.34 21.36 0.31 21.35C0.21 21.29 0.15 21.17 0.15 21.05L0.13 12.23C0.13 12.17 0.14 12.11 0.16 12.05C0.17 11.99 0.19 11.94 0.22 11.88C0.25 11.83 0.29 11.78 0.33 11.74C0.37 11.7 0.42 11.66 0.47 11.63L6.08 8.35C6.18 8.29 6.28 8.27 6.38 8.27L6.45 8.27ZM56.79 8.35C56.82 8.35 56.85 8.35 56.88 8.35C56.91 8.36 56.94 8.36 56.97 8.37C57 8.38 57.03 8.39 57.05 8.4C57.08 8.41 57.11 8.42 57.13 8.44L62.71 11.72C62.92 11.85 63.05 12.07 63.05 12.32L63.05 13.9C63.05 13.96 63.04 14.02 63.02 14.08C63.01 14.14 62.98 14.2 62.95 14.25C62.93 14.3 62.89 14.35 62.85 14.39C62.81 14.43 62.76 14.47 62.71 14.5L59.35 16.48C59.24 16.55 59.11 16.55 59.01 16.48C58.98 16.47 58.96 16.45 58.94 16.43C58.92 16.41 58.9 16.38 58.89 16.36C58.87 16.33 58.86 16.3 58.85 16.28C58.84 16.25 58.84 16.22 58.84 16.19L58.84 14.57C58.84 14.54 58.84 14.51 58.83 14.48C58.82 14.45 58.81 14.42 58.8 14.39C58.78 14.37 58.76 14.35 58.74 14.32C58.72 14.3 58.7 14.28 58.67 14.27L56.92 13.24C56.89 13.23 56.87 13.22 56.84 13.21C56.81 13.2 56.78 13.2 56.75 13.2C56.72 13.2 56.69 13.2 56.66 13.21C56.63 13.22 56.61 13.23 56.58 13.24L54.83 14.27C54.72 14.33 54.65 14.44 54.65 14.57L54.65 16.62C54.65 16.74 54.72 16.87 54.83 16.93L60.47 20.22C60.5 20.23 60.52 20.25 60.54 20.27C60.56 20.29 60.58 20.31 60.59 20.34C60.61 20.37 60.62 20.39 60.63 20.42C60.64 20.45 60.64 20.48 60.64 20.51C60.64 20.64 60.57 20.75 60.46 20.81L57.09 22.71C56.88 22.83 56.63 22.82 56.42 22.7L50.86 19.49C50.65 19.36 50.51 19.14 50.51 18.89L50.51 12.32C50.51 12.26 50.52 12.2 50.53 12.14C50.55 12.08 50.57 12.03 50.6 11.98C50.63 11.92 50.67 11.88 50.71 11.83C50.75 11.79 50.8 11.75 50.85 11.72L56.46 8.44C56.56 8.38 56.68 8.35 56.79 8.35L56.79 8.35ZM40.02 13.25C40.02 13.25 40.02 13.25 40.02 13.25L40.02 13.25ZM40.02 13.25L40.02 13.25C40.01 13.25 40.01 13.25 40 13.26C39.99 13.26 39.99 13.26 39.98 13.26C39.97 13.26 39.97 13.26 39.96 13.27C39.95 13.27 39.95 13.27 39.94 13.28L38.02 14.41C37.97 14.44 37.93 14.49 37.93 14.55L37.93 16.81C37.93 16.88 37.97 16.93 38.02 16.96L39.94 18.09C39.96 18.1 39.97 18.11 39.98 18.11C40 18.11 40.01 18.12 40.03 18.12C40.04 18.12 40.06 18.11 40.07 18.11C40.08 18.11 40.1 18.1 40.11 18.09L42.03 16.96C42.09 16.93 42.12 16.88 42.12 16.81L42.12 14.55C42.12 14.49 42.09 14.44 42.03 14.41L40.11 13.28C40.08 13.26 40.05 13.25 40.02 13.25Z" />
	<path id="Layer" class="shp0" d="M23.24 8.31C23.12 8.31 23 8.34 22.9 8.4L17.29 11.68C17.08 11.8 16.95 12.04 16.95 12.28L16.95 18.86C16.95 19.1 17.08 19.33 17.29 19.45L22.9 22.74C22.95 22.77 23.01 22.79 23.06 22.81C23.12 22.82 23.18 22.83 23.24 22.83C23.3 22.83 23.35 22.82 23.41 22.81C23.47 22.79 23.52 22.77 23.57 22.74L29.18 19.45C29.23 19.42 29.28 19.38 29.32 19.34C29.37 19.3 29.4 19.25 29.43 19.2C29.46 19.15 29.48 19.09 29.5 19.03C29.51 18.98 29.52 18.92 29.52 18.86L29.52 12.28C29.52 12.04 29.39 11.8 29.18 11.68L23.57 8.4C23.55 8.39 23.52 8.38 23.49 8.36C23.47 8.35 23.44 8.34 23.41 8.34C23.38 8.33 23.35 8.32 23.32 8.32C23.3 8.31 23.27 8.31 23.24 8.31L23.24 8.31ZM56.78 14.18C56.76 14.18 56.74 14.18 56.72 14.19L55.64 14.83C55.63 14.83 55.62 14.84 55.61 14.85C55.6 14.86 55.59 14.87 55.59 14.88C55.58 14.89 55.58 14.9 55.57 14.91C55.57 14.92 55.57 14.93 55.57 14.94L55.57 16.2C55.57 16.25 55.6 16.29 55.64 16.31L56.72 16.94C56.76 16.96 56.8 16.96 56.84 16.94L57.92 16.31C57.93 16.31 57.94 16.3 57.95 16.29C57.95 16.28 57.96 16.27 57.97 16.26C57.97 16.25 57.98 16.24 57.98 16.23C57.98 16.22 57.99 16.21 57.99 16.2L57.99 14.94C57.99 14.93 57.98 14.92 57.98 14.91C57.98 14.9 57.97 14.89 57.97 14.88C57.96 14.87 57.95 14.86 57.95 14.85C57.94 14.84 57.93 14.83 57.92 14.83L56.84 14.19C56.82 14.18 56.81 14.18 56.78 14.18L56.78 14.18Z" />
</svg>