<svg version="1.2" baseProfile="tiny-ps" xmlns="http://www.w3.org/2000/svg" viewBox="0 0 80 80" width="80" height="80">
	<title>New Project</title>
	<style>
		tspan { white-space:pre }
		.shp0 { fill: #dcd5f2 } 
		.shp1 { fill: #8b75a1 } 
		.shp2 { fill: #36404d } 
	</style>
	<path id="Layer" class="shp0" d="M40 61.5C18.22 61.5 0.5 51.85 0.5 40C0.5 28.15 18.22 18.5 40 18.5C61.78 18.5 79.5 28.14 79.5 40C79.5 51.86 61.78 61.5 40 61.5Z" />
	<path id="Layer" fill-rule="evenodd" class="shp1" d="M40 18C62.09 18 80 27.85 80 40C80 52.15 62.09 62 40 62C17.91 62 0 52.15 0 40C0 27.85 17.91 18 40 18ZM1 40C1 51.58 18.49 61 40 61C61.51 61 79 51.58 79 40C79 28.42 61.5 19 40 19C18.5 19 1 28.42 1 40Z" />
	<path id="Layer" fill-rule="evenodd" class="shp2" d="M25.11 32C29.44 32 32.84 35.1 31.82 39.72C30.62 45.09 27.43 46 21.57 46L17.06 46L16 52L14 52L17.5 32L25.11 32ZM19.18 34L17.43 44L21.57 44C27.39 44 29.02 43.07 29.86 39.28C30.18 37.88 29.94 36.64 29.2 35.71C28.33 34.62 26.84 34 25.11 34L19.18 34ZM61.11 32C65.44 32 68.84 35.1 67.82 39.72C66.62 45.09 63.43 46 57.57 46L53.06 46L52 52L50 52L53.5 32L61.11 32ZM55.18 34L53.43 44L57.57 44C63.4 44 65.02 43.07 65.86 39.28C66.18 37.88 65.94 36.64 65.2 35.71C64.33 34.62 62.84 34 61.11 34L55.18 34Z" />
	<g id="Layer">
		<path id="Layer" class="shp2" d="M49.07 33.21C48.19 32.35 46.64 32 44.33 32L38.8 32L40 26L37.9 26L34 46L35.99 46L38.38 34L38.8 34L44.33 34C46.67 34 47.43 34.4 47.67 34.64C48.01 34.98 48.09 35.86 47.89 37L46.12 46L48.23 46L49.85 37.37C50.2 35.46 49.94 34.06 49.07 33.21Z" />
	</g>
</svg>