<svg version="1.2" baseProfile="tiny-ps" xmlns="http://www.w3.org/2000/svg" viewBox="0 0 80 80" width="80" height="80">
	<title>New Project</title>
	<style>
		tspan { white-space:pre }
		.shp0 { fill: #0277bd } 
		.shp1 { fill: #ffc107 } 
	</style>
	<path id="Layer" fill-rule="evenodd" class="shp0" d="M46.79 5.68C51.35 6.43 54.61 9.82 54.61 14.34L54.61 30.25C54.61 34.91 50.02 38.36 45.34 38.36L31.93 38.36C26.22 38.36 21.25 43.8 21.25 49.29L21.25 58.75L14.51 58.75C9.63 58.75 6.95 55.06 5.74 50.12C4.14 43.51 4.21 39.54 5.74 33.21C7.09 27.69 11.37 25.39 16.25 25.39L41.63 25.39L41.63 21.68L24.95 21.68L24.95 14.34C24.95 9.53 26.25 6.92 33.38 5.68C35.8 5.26 37.8 5.01 40.68 5C43.54 4.99 46.9 5.67 46.79 5.68ZM28.66 15.2C28.66 16.74 29.89 17.98 31.44 17.98C32.96 17.98 34.22 16.74 34.22 15.2C34.22 13.67 32.96 12.41 31.44 12.41C29.89 12.41 28.66 13.67 28.66 15.2Z" />
	<path id="Layer" fill-rule="evenodd" class="shp1" d="M32.77 74.76C28.21 74 24.95 70.62 24.95 66.1L24.95 50.18C24.95 45.52 29.54 42.07 34.22 42.07L47.63 42.07C53.34 42.07 58.32 36.64 58.32 31.14L58.32 21.68L65.05 21.68C69.94 21.68 72.61 25.38 73.83 30.31C75.43 36.93 75.36 40.89 73.83 47.23C72.47 52.74 68.19 55.05 63.31 55.05L37.93 55.05L37.93 58.75L54.61 58.75L54.61 66.1C54.61 70.91 53.31 73.51 46.18 74.76C43.76 75.17 41.76 75.43 38.88 75.44C36.02 75.45 32.66 74.77 32.77 74.76ZM50.9 65.24C50.9 63.69 49.67 62.46 48.12 62.46C46.6 62.46 45.34 63.69 45.34 65.24C45.34 66.77 46.6 68.02 48.12 68.02C49.67 68.02 50.9 66.76 50.9 65.24Z" />
</svg>